<?xml version="1.0" encoding="UTF-8"?><svg id="Layer_1_copy" xmlns="http://www.w3.org/2000/svg" xmlns:xlink="http://www.w3.org/1999/xlink" viewBox="0 0 595.28 841.89"><defs><style>.cls-1{fill:url(#linear-gradient);}.cls-2{fill:#00ff53;}.cls-3{fill:#1e06e5;fill-rule:evenodd;}.cls-4{fill:#72c8f0;}.cls-5{fill:#fff;}.cls-6{opacity:.7;}.cls-7{opacity:.4;}.cls-8{opacity:.6;}.cls-9{opacity:.5;}</style><linearGradient id="linear-gradient" x1="-1051.19" y1="962.38" x2="335.94" y2="1092.51" gradientTransform="translate(431.08 -689.22) scale(.68 .91)" gradientUnits="userSpaceOnUse"><stop offset=".37" stop-color="#00ff53" stop-opacity="0"/><stop offset=".38" stop-color="#00ff53" stop-opacity=".02"/><stop offset=".56" stop-color="#00ff53" stop-opacity=".44"/><stop offset=".71" stop-color="#00ff53" stop-opacity=".74"/><stop offset=".81" stop-color="#00ff53" stop-opacity=".93"/><stop offset=".86" stop-color="#00ff53"/></linearGradient></defs><path class="cls-3" d="M0,0h595.28v841.89H0V0Z"/><rect class="cls-1" x="-286.18" y="79.9" width="949.02" height="338.65" rx="169.33" ry="169.33" transform="translate(271.99 -51.75) rotate(52.61)"/><g class="cls-9"><path class="cls-2" d="M438.35,92.56c-.58.16-1.18.26-1.79.31-1.3.11-2.58-.04-3.82-.43-1.28-.4-2.45-1.05-3.49-1.93-1.03-.88-1.86-1.93-2.46-3.13-.58-1.16-.93-2.4-1.04-3.7-.11-1.3.04-2.58.43-3.82.4-1.28,1.05-2.45,1.93-3.49h0l10.45-12.3c.88-1.03,1.93-1.86,3.13-2.46,1.16-.58,2.4-.93,3.7-1.04,1.3-.11,2.58.04,3.82.43,1.28.4,2.45,1.05,3.49,1.93,1.03.88,1.86,1.93,2.46,3.13.58,1.16.93,2.4,1.04,3.7.11,1.3-.04,2.58-.43,3.82-.4,1.28-1.05,2.45-1.93,3.49l-10.45,12.3c-.88,1.03-1.93,1.86-3.13,2.46-.62.31-1.26.55-1.92.73ZM443.89,61.98c-1.73.46-3.28,1.44-4.46,2.83l-10.45,12.3c-1.54,1.81-2.28,4.11-2.09,6.48.19,2.37,1.3,4.52,3.11,6.06,1.81,1.54,4.11,2.28,6.48,2.09,2.37-.19,4.52-1.3,6.06-3.11l10.45-12.3c1.54-1.81,2.28-4.11,2.09-6.48-.19-2.37-1.3-4.52-3.11-6.06-1.81-1.54-4.11-2.28-6.48-2.09-.54.04-1.08.14-1.59.27Z"/></g><path class="cls-5" d="M442.86,82.9c0,3.83-3.11,6.94-6.94,6.94s-6.94-3.11-6.94-6.94,3.11-6.94,6.94-6.94,6.94,3.11,6.94,6.94"/><path class="cls-5" d="M448.33,88.28h3.99v-10.75h-4.55v-1.55h4.55v-.67c0-3.82,1.52-5.27,5.11-5.27h3.08v1.55h-3.05c-2.62,0-3.42.94-3.42,3.72v.67h6.05v1.55h-6.05v10.75h4.39v1.55h-10.08v-1.55Z"/><path class="cls-5" d="M461.71,88.28h3.99v-10.75h-4.55v-1.55h4.55v-.67c0-3.82,1.52-5.27,5.11-5.27h3.08v1.55h-3.05c-2.62,0-3.42.94-3.42,3.72v.67h6.05v1.55h-6.05v10.75h4.39v1.55h-10.08v-1.55Z"/><path class="cls-5" d="M488.24,82.9c0-4.55,2.22-7.17,6.07-7.17,3.32,0,5.24,1.95,5.43,4.81h-1.69c-.27-2.09-1.52-3.18-3.77-3.18-2.78,0-4.17,1.85-4.17,5.54s1.39,5.54,4.17,5.54c2.25,0,3.58-1.12,3.83-3.21h1.66c-.16,2.86-2.17,4.84-5.46,4.84-3.85,0-6.07-2.65-6.07-7.17Z"/><path class="cls-5" d="M500.72,82.9c0-4.55,2.22-7.17,6.13-7.17s5.94,2.49,5.43,7.28h-9.71c.05,3.64,1.44,5.4,4.25,5.4,1.93,0,3.4-.86,3.72-2.57h1.69c-.32,2.49-2.46,4.23-5.48,4.23-3.8,0-6.02-2.62-6.02-7.17ZM502.62,81.48h7.94c.03-2.59-1.31-4.17-3.77-4.17s-3.83,1.5-4.17,4.17Z"/><path class="cls-5" d="M465.68,106.07v-6.55h-3.61v-1.55h3.61v-4.17h1.71v4.17h6.9v1.55h-6.9v6.58c0,2.97,1.02,4.17,3.8,4.17h2.7v1.55h-2.76c-3.93,0-5.46-1.63-5.46-5.75Z"/><path class="cls-5" d="M475.29,104.9c0-4.55,2.22-7.17,6.13-7.17s5.94,2.49,5.43,7.28h-9.71c.05,3.64,1.44,5.4,4.25,5.4,1.93,0,3.4-.86,3.72-2.57h1.69c-.32,2.49-2.46,4.23-5.48,4.23-3.8,0-6.02-2.62-6.02-7.17ZM477.19,103.48h7.94c.03-2.59-1.31-4.17-3.77-4.17s-3.83,1.5-4.17,4.17Z"/><path class="cls-5" d="M488.24,104.9c0-4.55,2.22-7.17,6.07-7.17,3.32,0,5.24,1.95,5.43,4.81h-1.69c-.27-2.09-1.52-3.18-3.77-3.18-2.78,0-4.17,1.85-4.17,5.54s1.39,5.54,4.17,5.54c2.25,0,3.58-1.12,3.83-3.21h1.66c-.16,2.86-2.17,4.84-5.46,4.84-3.85,0-6.07-2.65-6.07-7.17Z"/><path class="cls-5" d="M501.16,92.03h1.71v5.94l-.11,1.31.62.13c1.02-1.15,2.17-1.69,3.91-1.69,3.1,0,4.63,1.6,4.63,4.71v9.39h-1.71v-8.96c0-2.35-1.1-3.48-3.45-3.48-2.49,0-3.88,1.23-3.88,3.48v8.96h-1.71v-19.79Z"/><path class="cls-5" d="M475.64,129.67h1.74c.13,1.87,1.44,2.76,3.72,2.76s3.69-.88,3.69-2.49c0-1.18-.75-1.87-2.27-2.22l-3.13-.67c-2.22-.45-3.21-1.58-3.21-3.37,0-2.51,1.87-3.96,4.98-3.96,2.86,0,5.03,1.26,5.24,4.07h-1.69c-.21-1.63-1.5-2.46-3.53-2.46s-3.24.78-3.24,2.19c0,1.04.62,1.63,1.87,1.9l3.13.7c2.51.53,3.64,1.69,3.64,3.69,0,2.7-2.06,4.25-5.54,4.25-3.13,0-5.27-1.31-5.4-4.39Z"/><path class="cls-5" d="M499.29,133.82h-1.39l-.21-1.44h-.62c-.99,1.15-2.14,1.69-3.91,1.69-3.08,0-4.63-1.63-4.63-4.71v-9.39h1.71v8.96c0,2.35,1.1,3.48,3.48,3.48s3.85-1.26,3.85-3.48v-8.96h1.71v13.86Z"/><path class="cls-5" d="M515.93,128.07v-6.55h-3.61v-1.55h3.61v-4.17h1.71v4.17h6.9v1.55h-6.9v6.58c0,2.97,1.02,4.17,3.8,4.17h2.7v1.55h-2.76c-3.93,0-5.46-1.63-5.46-5.75Z"/><path class="cls-5" d="M525.59,126.89c0-4.55,2.22-7.17,6.13-7.17s5.94,2.49,5.43,7.28h-9.71c.05,3.64,1.44,5.4,4.25,5.4,1.93,0,3.4-.86,3.72-2.57h1.69c-.32,2.49-2.46,4.23-5.48,4.23-3.8,0-6.02-2.62-6.02-7.17ZM527.49,125.47h7.94c.03-2.59-1.31-4.17-3.77-4.17s-3.83,1.5-4.17,4.17Z"/><path class="cls-2" d="M435.76,92.9h-16.14c-1.35,0-2.67-.27-3.9-.79-1.19-.51-2.27-1.23-3.19-2.15-.92-.92-1.64-1.99-2.15-3.19-.52-1.24-.79-2.55-.79-3.9s.27-2.67.79-3.9c.51-1.19,1.23-2.27,2.15-3.19.92-.92,1.99-1.64,3.19-2.15,1.24-.52,2.55-.79,3.9-.79h16.14c1.35,0,2.67.27,3.9.79,1.19.51,2.27,1.23,3.19,2.15.92.92,1.64,1.99,2.15,3.19.52,1.24.79,2.55.79,3.9s-.27,2.67-.79,3.9c-.51,1.19-1.23,2.27-2.15,3.19-.92.92-1.99,1.64-3.19,2.15-1.24.52-2.55.79-3.9.79ZM419.62,73.98c-2.38,0-4.61.93-6.29,2.61-1.68,1.68-2.61,3.91-2.61,6.29s.93,4.61,2.61,6.29c1.68,1.68,3.91,2.61,6.29,2.61h16.14c2.38,0,4.61-.93,6.29-2.61,1.68-1.68,2.61-3.91,2.61-6.29s-.93-4.61-2.61-6.29-3.91-2.61-6.29-2.61h-16.14Z"/><g class="cls-6"><path class="cls-2" d="M436.34,92.88c-.67.04-1.35.01-2.02-.09-1.28-.19-2.5-.62-3.63-1.27-1.12-.66-2.09-1.51-2.89-2.54-.82-1.06-1.41-2.27-1.75-3.58l-4.08-15.61c-.34-1.31-.42-2.65-.22-3.98.19-1.28.62-2.5,1.27-3.63.66-1.12,1.51-2.09,2.54-2.89,1.06-.82,2.27-1.41,3.58-1.75,1.31-.34,2.65-.42,3.98-.22,1.28.19,2.5.62,3.63,1.27,1.12.66,2.09,1.51,2.89,2.54.82,1.06,1.41,2.27,1.75,3.58l4.08,15.61c.34,1.31.42,2.65.22,3.98-.19,1.28-.62,2.5-1.27,3.63-.66,1.12-1.51,2.09-2.54,2.89-1.06.82-2.27,1.41-3.58,1.75-.65.17-1.3.27-1.95.31ZM431.17,58.37c-.58.03-1.16.13-1.74.28-2.3.6-4.23,2.06-5.43,4.11-1.2,2.05-1.53,4.45-.93,6.74l4.08,15.61c.6,2.3,2.06,4.23,4.11,5.43,1.54.9,3.27,1.31,5,1.21.58-.03,1.16-.13,1.74-.28,2.3-.6,4.23-2.06,5.43-4.11,1.2-2.05,1.53-4.45.93-6.74l-4.08-15.61c-.6-2.3-2.06-4.23-4.11-5.43-1.54-.9-3.27-1.31-5-1.21Z"/></g><polygon class="cls-5" points="474.79 88.28 480.3 88.28 480.3 77.53 475.32 77.53 475.32 75.97 482.01 75.97 482.01 88.28 487.04 88.28 487.04 89.83 474.79 89.83 474.79 88.28"/><path class="cls-5" d="M482.01,71.45c0,.8-.65,1.45-1.45,1.45s-1.45-.65-1.45-1.45.65-1.45,1.45-1.45,1.45.65,1.45,1.45"/><polygon class="cls-5" points="500.82 132.27 506.33 132.27 506.33 121.51 501.35 121.51 501.35 119.96 508.04 119.96 508.04 132.27 513.07 132.27 513.07 133.82 500.82 133.82 500.82 132.27"/><path class="cls-5" d="M508.04,115.49c0,.8-.65,1.45-1.45,1.45s-1.45-.65-1.45-1.45.65-1.45,1.45-1.45,1.45.65,1.45,1.45"/><path class="cls-5" d="M71.34,764.81c0-2.5,1.58-4.1,4.05-4.1s4.05,1.58,4.05,4.1-1.56,4.1-4.05,4.1-4.05-1.6-4.05-4.1ZM77.97,764.81c0-1.79-.95-2.81-2.58-2.81s-2.58,1.04-2.58,2.81.96,2.81,2.58,2.81,2.58-1.04,2.58-2.81Z"/><path class="cls-5" d="M81.9,761.99h-1.6v-1.13h1.62v-1.83c0-.89.53-1.33,1.38-1.33h2.18v1.13h-2.12v2.03h4.05v-1.83c0-.89.53-1.33,1.38-1.33h2.18v1.13h-2.12v2.03h1.96v1.13h-1.95v6.76h-1.47v-6.76h-4.02v6.76h-1.47v-6.76Z"/><path class="cls-5" d="M92.04,758.89c0-.49.41-.89.89-.89s.89.41.89.89-.41.89-.89.89-.89-.41-.89-.89ZM92.19,760.86h1.47v7.89h-1.47v-7.89Z"/><path class="cls-5" d="M95.43,764.81c0-2.5,1.54-4.1,3.97-4.1,1.93,0,3.26.99,3.68,2.77h-1.49c-.3-1.01-1.03-1.49-2.2-1.49-1.58,0-2.5,1.04-2.5,2.81s.93,2.81,2.5,2.81c1.22,0,1.96-.51,2.25-1.62h1.49c-.39,1.88-1.75,2.91-3.73,2.91-2.42,0-3.97-1.6-3.97-4.1Z"/><path class="cls-5" d="M103.98,764.78c0-2.49,1.57-4.08,3.97-4.08s3.73,1.46,3.73,3.76v.59h-6.29c.08,1.66,1.05,2.62,2.6,2.62,1.08,0,1.84-.46,2.12-1.33h1.5c-.39,1.63-1.72,2.56-3.6,2.56-2.46,0-4.04-1.62-4.04-4.13ZM110.26,763.98c-.13-1.3-.99-2.05-2.33-2.05s-2.24.75-2.49,2.05h4.81Z"/><path class="cls-5" d="M114.01,767.46v-5.47h-1.47v-1.13h1.49v-2.37h1.45v2.37h2.06v1.13h-2.05v5.6h2.26v1.16h-2.41c-.84,0-1.33-.42-1.33-1.29Z"/><path class="cls-5" d="M118.68,764.78c0-2.49,1.57-4.08,3.97-4.08s3.73,1.46,3.73,3.76v.59h-6.29c.08,1.66,1.05,2.62,2.6,2.62,1.08,0,1.84-.46,2.12-1.33h1.5c-.39,1.63-1.72,2.56-3.6,2.56-2.46,0-4.04-1.62-4.04-4.13ZM124.96,763.98c-.13-1.3-.99-2.05-2.33-2.05s-2.24.75-2.49,2.05h4.81Z"/><path class="cls-5" d="M127.62,764.81c0-2.5,1.54-4.1,3.97-4.1,1.93,0,3.26.99,3.68,2.77h-1.49c-.3-1.01-1.03-1.49-2.2-1.49-1.58,0-2.5,1.04-2.5,2.81s.93,2.81,2.5,2.81c1.22,0,1.96-.51,2.25-1.62h1.49c-.39,1.88-1.75,2.91-3.73,2.91-2.42,0-3.97-1.6-3.97-4.1Z"/><path class="cls-5" d="M136.61,757.71h1.47v4.42h.05c.5-.91,1.45-1.41,2.68-1.41,1.97,0,3.23,1.26,3.23,3.21v4.83h-1.47v-4.58c0-1.41-.79-2.17-2.25-2.17s-2.25.76-2.25,2.17v4.58h-1.47v-11.05Z"/><path class="cls-5" d="M145.57,766.32h1.46c.12.96.83,1.41,2.22,1.41,1.25,0,1.84-.38,1.84-1.16,0-.62-.34-.93-1.24-1.1l-1.72-.32c-1.49-.28-2.2-.97-2.2-2.09,0-1.45,1.17-2.35,3.09-2.35s3.19.92,3.35,2.46h-1.43c-.18-.88-.8-1.29-1.96-1.29-1.08,0-1.68.37-1.68,1.08,0,.54.35.83,1.2.99l1.72.33c1.54.29,2.24.99,2.24,2.2,0,1.54-1.16,2.45-3.26,2.45s-3.51-.96-3.63-2.59Z"/><path class="cls-5" d="M153.95,765.77v-4.9h1.47v4.59c0,1.42.75,2.16,2.16,2.16s2.34-.8,2.34-2.17v-4.58h1.47v6.36h.76v1.53h-1.58v-1.21h-.55c-.55.87-1.51,1.35-2.81,1.35-2.04,0-3.26-1.21-3.26-3.13Z"/><path class="cls-5" d="M163.81,758.89c0-.49.41-.89.89-.89s.89.41.89.89-.41.89-.89.89-.89-.41-.89-.89ZM163.97,760.86h1.47v7.89h-1.47v-7.89Z"/><path class="cls-5" d="M168.29,767.46v-5.47h-1.47v-1.13h1.49v-2.37h1.45v2.37h2.06v1.13h-2.05v5.6h2.26v1.16h-2.41c-.84,0-1.33-.42-1.33-1.29Z"/><path class="cls-5" d="M172.96,764.78c0-2.49,1.57-4.08,3.97-4.08s3.73,1.46,3.73,3.76v.59h-6.29c.08,1.66,1.05,2.62,2.6,2.62,1.08,0,1.84-.46,2.12-1.33h1.5c-.39,1.63-1.72,2.56-3.6,2.56-2.46,0-4.04-1.62-4.04-4.13ZM179.25,763.98c-.13-1.3-.99-2.05-2.33-2.05s-2.24.75-2.49,2.05h4.81Z"/><path class="cls-5" d="M182.01,767.87c0-.58.46-1.04,1.04-1.04s1.04.46,1.04,1.04-.46,1.04-1.04,1.04-1.04-.46-1.04-1.04Z"/><path class="cls-5" d="M185.16,764.81c0-2.5,1.54-4.1,3.97-4.1,1.93,0,3.26.99,3.68,2.77h-1.49c-.3-1.01-1.03-1.49-2.2-1.49-1.58,0-2.5,1.04-2.5,2.81s.93,2.81,2.5,2.81c1.22,0,1.96-.51,2.25-1.62h1.49c-.39,1.88-1.75,2.91-3.73,2.91-2.42,0-3.97-1.6-3.97-4.1Z"/><path class="cls-5" d="M193.71,764.81c0-2.5,1.58-4.1,4.05-4.1s4.05,1.58,4.05,4.1-1.57,4.1-4.05,4.1-4.05-1.6-4.05-4.1ZM200.34,764.81c0-1.79-.95-2.81-2.58-2.81s-2.58,1.04-2.58,2.81.96,2.81,2.58,2.81,2.58-1.04,2.58-2.81Z"/><path class="cls-5" d="M202.89,767.87c0-.58.46-1.04,1.04-1.04s1.04.46,1.04,1.04-.46,1.04-1.04,1.04-1.04-.46-1.04-1.04Z"/><path class="cls-5" d="M206.44,765.77v-4.9h1.47v4.59c0,1.42.75,2.16,2.16,2.16s2.34-.8,2.34-2.17v-4.58h1.47v6.36h.76v1.53h-1.58v-1.21h-.55c-.55.87-1.51,1.35-2.81,1.35-2.04,0-3.26-1.21-3.26-3.13Z"/><path class="cls-5" d="M216.38,757.71h1.47v6.71h.05l3.8-3.55h1.8l-3.62,3.26,3.92,4.63h-1.79l-3.13-3.72-1.04.84v2.88h-1.47v-11.05Z"/><path class="cls-5" d="M473.47,766.49c-5.9,0-10.7-4.8-10.7-10.7s4.8-10.7,10.7-10.7,10.7,4.8,10.7,10.7-4.8,10.7-10.7,10.7ZM473.47,745.5c-5.67,0-10.28,4.61-10.28,10.28s4.61,10.28,10.28,10.28,10.28-4.61,10.28-10.28-4.61-10.28-10.28-10.28Z"/><path class="cls-5" d="M473.47,771.69c-4.2,0-8.15-1.64-11.12-4.61s-4.61-6.92-4.61-11.12,1.64-8.15,4.61-11.12c2.97-2.97,6.92-4.61,11.12-4.61s8.15,1.64,11.12,4.61c2.97,2.97,4.61,6.92,4.61,11.12s-1.64,8.15-4.61,11.12c-2.97,2.97-6.92,4.61-11.12,4.61ZM473.47,740.65c-4.09,0-7.93,1.59-10.82,4.48-2.89,2.89-4.48,6.74-4.48,10.82s1.59,7.93,4.48,10.82c2.89,2.89,6.74,4.48,10.82,4.48s7.93-1.59,10.82-4.48c2.89-2.89,4.48-6.74,4.48-10.82s-1.59-7.93-4.48-10.82c-2.89-2.89-6.74-4.48-10.82-4.48Z"/><path class="cls-5" d="M466.96,758.04h-1.31v-1.27h.95v-3.76h-.95v-1.17h3.67v1.16h-.95v3.77h.95v1.27h-2.36Z"/><path class="cls-5" d="M473.47,758.15c-.31,0-.58-.03-.8-.1-.22-.07-.42-.16-.6-.29-.17-.13-.32-.29-.45-.49h.01l-.48.85h-1.21v-2.24h1.08c.19.24.39.44.6.6.2.15.42.27.66.34.23.07.5.11.8.11.2,0,.38-.02.52-.07.15-.05.26-.11.33-.19.07-.08.11-.17.11-.27s-.04-.2-.13-.28c-.09-.08-.21-.16-.37-.23-.16-.07-.38-.12-.66-.17l-1.09-.21c-.45-.09-.82-.22-1.11-.39-.29-.17-.51-.38-.66-.63-.14-.25-.21-.54-.21-.86s.1-.64.31-.92c.2-.28.48-.5.84-.67.35-.16.74-.25,1.18-.25.29,0,.55.03.76.1.21.07.39.16.53.29.14.12.26.27.37.45l-.02.05.34-.87h1.23v1.99h-1.14c-.15-.19-.31-.34-.49-.46-.18-.11-.38-.2-.59-.25s-.43-.09-.66-.09c-.19,0-.35.02-.48.07-.14.04-.24.11-.31.18s-.1.16-.1.26c0,.08.03.16.08.23.05.07.15.14.3.2.14.06.34.12.59.17l1.1.21c.75.16,1.3.39,1.65.69.35.3.53.7.53,1.21,0,.38-.1.71-.3,1.01-.2.29-.47.53-.83.69-.36.17-.76.25-1.22.25Z"/><path class="cls-5" d="M479.2,758.18c-.69,0-1.27-.13-1.74-.39-.47-.26-.83-.63-1.07-1.12-.24-.49-.36-1.07-.36-1.75s.13-1.24.39-1.73c.26-.49.64-.87,1.14-1.12s1.08-.39,1.75-.39,1.25.13,1.73.38c.48.26.83.63,1.08,1.12.24.49.36,1.07.36,1.74s-.13,1.24-.4,1.73c-.27.49-.64.86-1.13,1.12-.49.26-1.07.39-1.74.39ZM479.25,756.93c.33,0,.6-.08.82-.23.21-.15.37-.38.48-.67.1-.29.16-.66.16-1.1s-.05-.81-.15-1.11c-.1-.3-.26-.52-.47-.67-.21-.15-.49-.22-.83-.22s-.61.07-.83.22c-.21.15-.37.37-.47.67-.1.3-.15.66-.15,1.1s.05.81.14,1.11c.1.29.25.52.47.67.21.15.49.23.84.23Z"/><g class="cls-7"><path class="cls-5" d="M469.36,749.54c.21.16.44.31.69.44-.27.32-.52.68-.74,1.08h.18c.21-.37.45-.71.7-1.01.36.18.76.32,1.19.43-.08.18-.15.37-.22.58h.17c.07-.19.14-.37.21-.54.58.14,1.2.21,1.85.22v.32h.16v-.32c.64,0,1.26-.08,1.84-.22.08.17.15.35.21.54h.17c-.07-.2-.15-.4-.23-.58.45-.12.86-.27,1.24-.45.27.31.52.65.74,1.03h.18c-.23-.41-.49-.78-.78-1.11.23-.12.45-.26.65-.41.55.42,1.04.93,1.45,1.52h.19s0,0,0-.01c-1.29-1.91-3.44-3.05-5.74-3.05s-4.46,1.15-5.75,3.07h.19c.41-.59.9-1.1,1.45-1.52ZM475.48,750.33c-.27-.58-.6-1.04-.95-1.34.21-.06.41-.13.59-.22.57.25,1.09.64,1.56,1.13-.36.18-.77.32-1.2.43ZM475.57,748.48c.67.22,1.3.54,1.88.96-.19.14-.4.27-.62.39-.45-.49-.97-.88-1.53-1.15.09-.05.17-.11.25-.17.01,0,.02-.02.02-.03ZM473.55,748.15c.63,0,1.25.1,1.84.28-.29.2-.65.36-1.06.44,0,0-.01,0-.02,0-.24.05-.5.08-.77.09v-.81ZM473.55,749.12c.27,0,.53-.03.78-.08.37.28.71.74.99,1.33-.56.13-1.15.2-1.77.2v-1.45ZM471.45,750.33c-.41-.1-.79-.24-1.14-.41.45-.49.97-.88,1.54-1.14.17.08.36.15.55.2-.36.31-.68.76-.95,1.34ZM473.39,750.57c-.62,0-1.22-.08-1.78-.21.28-.6.62-1.05.98-1.34.25.05.52.08.79.09v1.45ZM473.39,748.15v.81c-.28,0-.54-.04-.79-.09,0,0,0,0-.01,0-.25-.06-.49-.14-.7-.24,0,0-.01,0-.02,0-.12-.06-.23-.12-.33-.2.59-.17,1.21-.27,1.84-.28ZM471.37,748.48s.01.02.02.03c.09.07.18.13.28.18-.55.27-1.06.66-1.51,1.16-.24-.12-.47-.26-.67-.41.57-.41,1.2-.74,1.88-.96Z"/><path class="cls-5" d="M477.6,760.28c-.2-.15-.42-.29-.66-.42.29-.34.56-.72.79-1.14,0,0,0-.01,0-.02h-.18c-.22.4-.48.76-.76,1.08-.39-.19-.83-.35-1.29-.47.09-.19.17-.39.24-.6,0,0,0,0,0,0h-.17c-.07.2-.15.39-.23.57-.57-.13-1.17-.2-1.8-.21v-.36h-.16v.36c-.63,0-1.24.08-1.81.21-.08-.18-.16-.37-.23-.57h-.17s0,0,0,0c.08.21.16.42.24.61-.44.11-.86.26-1.23.44-.27-.31-.51-.67-.73-1.05h-.18s0,.01,0,.02c.22.41.47.78.75,1.11-.25.13-.49.28-.7.44-.56-.43-1.06-.96-1.48-1.57h-.19s0,.02.01.02c1.29,1.95,3.45,3.11,5.78,3.11s4.49-1.16,5.78-3.11c0,0,0-.02.01-.02h-.19c-.41.61-.91,1.14-1.48,1.57ZM471.49,759.47c.28.59.62,1.04.99,1.32-.24.06-.46.13-.67.23-.56-.26-1.06-.64-1.51-1.13.36-.17.77-.31,1.19-.42ZM471.31,761.33c-.66-.22-1.27-.54-1.83-.95.21-.15.43-.29.68-.42.44.49.93.88,1.48,1.15-.11.06-.21.13-.3.2,0,0-.01.01-.02.02ZM473.39,761.68c-.65,0-1.29-.11-1.9-.29.11-.08.23-.15.35-.21,0,0,0,0,0,0,.43-.21.97-.33,1.54-.34v.84ZM473.39,760.68c-.24,0-.48.03-.7.07-.38-.26-.74-.71-1.03-1.32.55-.12,1.13-.19,1.74-.2v1.45ZM475.44,759.47c.45.11.87.26,1.25.44-.45.49-.97.87-1.53,1.12-.22-.1-.46-.19-.71-.24.37-.29.71-.74.99-1.32ZM473.55,759.23c.6,0,1.18.07,1.73.19-.3.6-.66,1.06-1.04,1.32-.22-.04-.45-.06-.69-.06v-1.45ZM473.55,761.68v-.84c.24,0,.47.03.68.07,0,0,0,0,0,0,.32.06.62.15.88.28,0,0,0,0,0,0,.12.06.23.13.34.2-.61.19-1.25.29-1.9.29ZM475.63,761.33s-.01-.01-.02-.02c-.09-.07-.18-.13-.28-.18.54-.27,1.05-.66,1.5-1.14.23.12.44.25.63.4-.56.41-1.18.73-1.83.95Z"/></g><path class="cls-5" d="M459.38,757.06l-.02-.32,1.54-.09.02.32-1.54.09Z"/><path class="cls-5" d="M459.97,755.86c0,.1.04.17.13.21.05.02.1.03.17.03h.62s0,.31,0,.31l-1.14-.02v-.29s.17,0,.17,0c-.06-.04-.1-.08-.13-.11-.05-.06-.07-.14-.07-.24,0-.12.03-.21.1-.29.06-.07.17-.11.31-.11h.77s0,.32,0,.32h-.7c-.06-.01-.11,0-.14.01-.06.03-.09.08-.09.17Z"/><path class="cls-5" d="M459.41,754.48l.24.02s0,.04-.01.08c0,.04,0,.07.02.08.02.02.04.03.06.03h.1s.02-.19.02-.19l.21.02-.02.2.92.08-.03.3-.92-.08v.17s-.22-.02-.22-.02v-.16s-.06,0-.06,0c-.12-.01-.2-.04-.25-.08-.06-.05-.09-.16-.08-.32,0-.02,0-.04,0-.05s0-.04.01-.06Z"/><path class="cls-5" d="M460.14,753.38c.14-.08.28-.1.45-.07.17.03.3.1.4.21s.14.27.1.46c-.03.19-.12.33-.25.4-.13.08-.28.1-.45.07-.16-.03-.3-.1-.4-.21-.1-.12-.14-.27-.11-.46.03-.19.12-.33.25-.4ZM460.14,753.82c-.01.09,0,.16.06.21.05.06.14.09.25.11.11.02.2.01.27-.03s.11-.1.13-.18c.01-.09,0-.16-.06-.21-.05-.06-.14-.09-.25-.11-.11-.02-.2-.01-.27.03s-.11.1-.12.18Z"/><path class="cls-5" d="M460.5,752.47c-.03.12-.01.2.05.26.04.03.1.06.19.08l.53.13-.07.29-1.11-.28.07-.28.19.05c-.06-.06-.1-.12-.12-.16-.03-.07-.04-.14-.01-.23,0,0,0,0,0-.01,0,0,0-.01,0-.02l.3.08s-.01.03-.02.05c0,.01,0,.03,0,.03Z"/><path class="cls-5" d="M460.82,751.58c-.06,0-.1.04-.13.11-.03.08-.02.14.02.19.02.03.07.05.12.07l.65.24-.11.28-1.07-.4.1-.27.16.06c-.04-.06-.07-.1-.08-.14-.02-.07-.02-.15.02-.24.03-.08.07-.14.13-.18.05-.03.1-.04.16-.04-.05-.06-.08-.12-.09-.19,0-.07,0-.14.03-.21.02-.05.04-.09.08-.13.04-.04.08-.07.14-.09.05-.02.1-.02.16-.01.04,0,.09.02.16.05l.68.25-.11.29-.68-.25s-.08-.02-.11-.02c-.06,0-.1.04-.13.11-.03.08-.02.14.04.2.03.03.07.05.11.07l.64.24-.1.28-.64-.24c-.06-.02-.11-.03-.15-.03Z"/><path class="cls-5" d="M461.16,750.25c-.05-.12-.04-.26.05-.43.06-.11.13-.2.22-.26.09-.06.19-.06.32,0l.47.24s.07.04.12.06c.04.02.06.02.08.02.02,0,.03-.01.05-.02l.04.02-.15.29s-.05,0-.07-.01c-.02,0-.04-.01-.07-.02.02.06.03.12.04.18,0,.07-.01.15-.05.22-.05.09-.11.15-.2.19-.08.03-.17.02-.27-.02-.13-.06-.19-.16-.2-.28,0-.07.01-.16.05-.27l.04-.1c.02-.05.03-.09.03-.12,0-.05-.01-.08-.05-.1-.04-.02-.08-.02-.11,0-.03.02-.06.06-.09.12-.03.06-.04.12-.02.16.01.03.04.06.07.09l-.13.26c-.09-.05-.15-.11-.18-.19ZM461.97,750.42s.06-.04.08-.08c.03-.06.04-.12.03-.18,0-.07-.06-.12-.15-.17l-.1-.05s0,.04,0,.06c0,.02,0,.05-.02.08l-.02.07c-.02.06-.03.11-.03.14,0,.05.03.09.08.12.05.02.08.03.12.01Z"/><path class="cls-5" d="M462.68,749.18l.19.12-.07.12c-.07.12-.14.19-.21.21-.05.01-.1,0-.16-.04l-.6-.37-.08.14-.18-.11.08-.14-.27-.17.15-.25.27.17.1-.16.18.11-.1.16.52.31s.07.03.08.03c.02,0,.04-.03.07-.08,0,0,0-.02.01-.02,0,0,0-.02.01-.03Z"/><path class="cls-5" d="M461.83,748.03l.23.16-.17.25-.23-.16.17-.25ZM462.17,748.26l.95.64-.17.25-.95-.64.17-.25Z"/><path class="cls-5" d="M463.06,747.33c.15,0,.3.05.43.15.13.1.21.23.25.38.03.15-.01.3-.13.46-.12.15-.26.23-.41.23-.15,0-.3-.05-.43-.15-.13-.1-.21-.23-.25-.38-.04-.15,0-.3.13-.46.12-.15.26-.23.42-.23ZM462.84,747.72c-.05.07-.07.14-.05.22.02.08.07.15.16.22.09.07.17.11.25.11.08,0,.14-.03.2-.1.05-.07.07-.14.05-.22-.02-.08-.07-.15-.16-.22s-.17-.11-.25-.11c-.08,0-.14.03-.2.1Z"/><path class="cls-5" d="M463.76,746.69c-.07.07-.09.15-.05.24.02.05.05.09.1.14l.44.43-.21.21-.82-.79.2-.21.12.12c-.02-.07-.02-.12-.02-.17,0-.08.05-.15.11-.22.08-.08.17-.13.27-.14.1-.01.2.03.3.13l.55.54-.21.22-.5-.48s-.08-.07-.12-.08c-.06-.02-.12,0-.18.06Z"/><path class="cls-5" d="M465.68,745.91c.06-.05.1-.09.13-.13.05-.08.05-.16,0-.22-.03-.04-.07-.06-.13-.05-.05,0-.12.03-.21.07l-.15.07c-.15.07-.26.1-.34.11-.13,0-.24-.05-.33-.17-.08-.11-.11-.23-.09-.37.02-.13.11-.26.27-.38.13-.1.27-.15.41-.15.14,0,.27.06.37.19l-.25.19c-.06-.07-.13-.1-.22-.08-.06,0-.11.04-.17.08-.07.05-.11.1-.13.16-.02.06-.01.11.03.16.03.04.08.06.13.05.04,0,.1-.03.2-.07l.25-.11c.11-.05.2-.07.28-.07.12,0,.22.06.3.17.09.11.11.24.08.38-.03.14-.12.27-.28.39-.16.12-.31.18-.46.18-.15,0-.27-.07-.37-.2l.25-.19c.05.05.1.08.14.09.08.02.17-.01.27-.09Z"/><path class="cls-5" d="M467.12,744.83c.03.06.03.14.02.23-.03.15-.11.27-.26.36-.12.08-.26.1-.4.08-.14-.02-.27-.12-.38-.3-.1-.17-.14-.32-.11-.47.03-.14.11-.26.25-.34.08-.05.16-.08.25-.09.08,0,.17,0,.25.05.07.03.14.09.2.16.03.04.08.1.13.19l-.67.41c.06.1.14.15.22.15.05,0,.1-.01.15-.04.05-.03.09-.07.1-.12,0-.03.01-.06,0-.1l.26-.16ZM466.68,744.68c-.05-.06-.1-.1-.16-.12-.06-.01-.11,0-.17.03-.06.04-.09.08-.1.14,0,.06,0,.12.03.19l.4-.24Z"/><path class="cls-5" d="M468,743.94l-.27.14s-.05-.06-.09-.08c-.05-.03-.11-.02-.17,0-.09.04-.13.12-.12.23,0,.06.03.12.07.2.04.08.08.13.12.17.07.07.16.08.24.04.06-.03.1-.07.11-.12s0-.1-.02-.16l.27-.14c.03.08.04.18.03.28-.03.16-.12.28-.29.36-.16.08-.31.09-.44.03-.13-.06-.23-.17-.31-.32-.09-.18-.11-.33-.07-.47s.13-.25.28-.32c.13-.06.25-.09.36-.07.11.02.21.1.3.23Z"/><path class="cls-5" d="M469.1,744.12s0,.02,0,.04c0,.02-.01.04-.02.06-.03.06-.06.1-.1.13-.04.03-.08.06-.14.08-.16.06-.29.04-.38-.05-.05-.05-.11-.14-.15-.26l-.24-.64.29-.11.24.64c.02.06.05.1.07.13.05.04.11.05.18.02.1-.04.15-.1.15-.19,0-.05,0-.11-.04-.18l-.22-.58.28-.11.41,1.07-.27.1-.06-.15Z"/><path class="cls-5" d="M469.97,743.11c-.12.03-.18.09-.2.18-.01.05,0,.12.02.21l.15.53-.29.08-.32-1.1.27-.08.05.19c.02-.09.05-.15.07-.18.04-.06.1-.1.19-.13,0,0,0,0,.01,0,0,0,.01,0,.03,0l.08.29s-.04,0-.05,0c-.01,0-.03,0-.03,0Z"/><path class="cls-5" d="M470.38,742.31l.06.27-.3.07-.06-.27.3-.07ZM470.47,742.71l.25,1.12-.3.07-.25-1.12.3-.07Z"/><path class="cls-5" d="M471.45,743.47l.04.22-.14.03c-.14.03-.24.02-.3-.02-.04-.03-.06-.08-.08-.15l-.12-.69-.16.03-.04-.21.16-.03-.06-.31.29-.05.06.31.18-.03.04.21-.18.03.11.6s.02.07.03.08c.01,0,.05,0,.11,0,0,0,.02,0,.03,0,0,0,.02,0,.03,0Z"/><path class="cls-5" d="M472.07,743.31l.15-.86.32-.03-.28,1.16c-.05.22-.1.36-.14.42-.04.06-.12.09-.26.1-.03,0-.05,0-.06,0-.02,0-.04,0-.07,0l-.02-.24h.04s.06,0,.08-.01c.03,0,.05-.02.06-.03.02-.01.03-.04.04-.08.01-.04.01-.06.01-.07l-.54-1.15.33-.03.33.81Z"/><path class="cls-5" d="M473.65,743.54l-.3-.02.09-1.54.47.03.21,1.23.35-1.2.46.03-.09,1.54-.3-.02.06-1.04s0-.07,0-.13c0-.05,0-.1,0-.13l-.37,1.28-.31-.02-.22-1.31s0,.07,0,.13c0,.05,0,.1,0,.13l-.06,1.04Z"/><path class="cls-5" d="M475.27,742.65c.1-.09.24-.11.43-.08.12.02.23.06.32.13.09.07.12.17.1.3l-.09.52s-.01.08-.02.13c0,.04,0,.07,0,.08,0,.02.02.03.04.04v.04s-.33-.06-.33-.06c0-.02,0-.05,0-.07,0-.02,0-.04,0-.07-.05.04-.1.07-.16.09-.07.03-.14.03-.22.02-.1-.02-.18-.06-.24-.13-.06-.07-.08-.16-.06-.26.02-.14.09-.23.21-.27.06-.02.15-.03.27-.03h.1c.06,0,.1,0,.12,0,.05-.01.07-.03.08-.07,0-.05,0-.08-.03-.1s-.07-.04-.14-.05c-.07-.01-.12,0-.16.03-.03.02-.04.05-.06.1l-.28-.05c.02-.1.06-.17.12-.23ZM475.36,743.48s.06.04.1.05c.06.01.13,0,.18-.03s.1-.09.12-.19l.02-.11s-.04.01-.06.02c-.02,0-.05,0-.08,0h-.07c-.06,0-.11,0-.14.02-.05.02-.08.06-.09.11,0,.05,0,.09.02.12Z"/><path class="cls-5" d="M476.95,743.1c-.1-.03-.18,0-.24.07-.03.04-.06.09-.07.16l-.16.6-.29-.08.3-1.1.28.08-.04.16c.05-.05.1-.08.14-.09.07-.03.15-.03.24,0,.11.03.2.09.26.17.06.08.07.19.03.33l-.2.74-.3-.08.18-.67c.02-.06.02-.1.01-.14-.01-.06-.06-.11-.14-.13Z"/><path class="cls-5" d="M477.8,743.26c.11-.07.25-.06.43,0,.12.04.21.11.29.19s.09.19.04.31l-.19.49s-.03.08-.05.12c-.01.04-.02.06-.01.08,0,.02.01.03.03.05l-.02.04-.3-.12s0-.05,0-.07c0-.02,0-.04.02-.07-.05.03-.11.05-.17.06-.07.01-.15,0-.22-.03-.1-.04-.17-.1-.21-.17-.04-.08-.04-.17,0-.27.05-.13.14-.21.26-.23.07-.01.16,0,.27.02l.1.02c.05.01.09.02.12.02.05,0,.08-.02.09-.06.02-.04.01-.08-.01-.11s-.07-.05-.12-.08c-.07-.03-.12-.03-.16,0-.03.02-.05.04-.08.08l-.27-.1c.04-.09.1-.16.17-.2ZM477.72,744.09s.05.05.08.07c.06.02.12.03.19.01s.12-.07.15-.16l.04-.1s-.04,0-.06,0-.05,0-.08,0h-.07c-.06-.02-.11-.03-.14-.02-.05,0-.09.04-.11.09-.02.05-.02.09,0,.12Z"/><path class="cls-5" d="M478.66,744.94s.06.08.13.11c.1.05.18.05.24,0,.04-.03.09-.1.14-.19l.03-.07s-.09.05-.13.06c-.07.01-.15,0-.24-.04-.13-.07-.21-.16-.25-.3-.03-.13,0-.28.07-.43.08-.15.18-.26.3-.33.13-.07.26-.06.4,0,.05.03.09.06.12.09.05.06.08.13.08.23l.07-.15.26.13-.48.97c-.07.13-.14.22-.22.27-.13.08-.31.06-.53-.05-.13-.07-.23-.14-.28-.24-.06-.09-.06-.19-.02-.3l.29.14s0,.06,0,.09ZM478.88,744.38c0,.1.04.18.13.23.06.03.13.03.19,0s.13-.09.18-.19c.05-.1.06-.18.05-.25-.02-.07-.06-.12-.13-.16-.09-.05-.18-.03-.26.04-.04.04-.08.09-.11.16-.03.06-.05.12-.05.17Z"/><path class="cls-5" d="M480.59,745.42c-.04.05-.11.09-.2.12-.14.04-.29.02-.44-.08-.12-.08-.21-.18-.25-.32-.04-.14-.01-.3.1-.48.1-.17.23-.27.37-.31.14-.04.28-.01.42.07.08.05.14.11.19.18.05.07.07.15.07.24,0,.08-.01.16-.05.25-.02.05-.06.11-.11.2l-.66-.41c-.06.1-.07.19-.04.26.02.05.05.08.1.12.05.03.1.04.16.03.03,0,.06-.02.09-.04l.26.16ZM480.53,744.96c.04-.07.05-.13.03-.19-.01-.06-.05-.1-.1-.14-.06-.04-.12-.05-.17-.03s-.11.05-.15.11l.39.25Z"/><path class="cls-5" d="M481.57,745.54c.01-.06,0-.11-.06-.16-.07-.05-.13-.07-.19-.04-.03.01-.07.05-.11.09l-.43.54-.24-.19.72-.89.23.18-.1.13c.07-.02.12-.03.16-.03.07,0,.15.03.22.09.07.05.11.11.13.18.01.05,0,.11,0,.17.07-.03.14-.04.21-.02.07.01.13.04.19.09.04.03.07.07.1.12.03.05.04.1.04.16,0,.05-.01.1-.04.16-.02.03-.05.08-.1.14l-.45.56-.24-.19.46-.57s.04-.07.05-.1c.01-.06,0-.11-.06-.15-.06-.05-.13-.06-.2-.03-.04.02-.07.05-.1.09l-.43.53-.23-.19.43-.53c.04-.05.07-.1.08-.13Z"/><path class="cls-5" d="M482.9,747.43c-.05.04-.13.07-.22.07-.15,0-.28-.05-.41-.18-.1-.1-.16-.23-.17-.37-.01-.15.06-.29.21-.44.14-.14.29-.21.43-.21.15,0,.27.05.39.17.07.07.11.14.14.22s.03.16.01.25c-.02.08-.05.16-.11.23-.03.04-.08.1-.16.17l-.55-.56c-.08.08-.11.17-.1.25,0,.05.03.1.07.14.04.04.09.07.14.07.03,0,.06,0,.1-.02l.21.22ZM482.94,746.97c.05-.06.08-.12.08-.18s-.02-.11-.07-.16c-.05-.05-.1-.07-.16-.07s-.12.03-.18.07l.33.33Z"/><path class="cls-5" d="M483.83,747.63c-.06-.08-.14-.11-.23-.08-.05.01-.1.04-.15.09l-.48.39-.19-.23.89-.72.18.22-.13.1c.07,0,.13,0,.17,0,.07.02.14.07.2.14.07.09.11.19.11.28,0,.1-.06.19-.17.28l-.6.48-.19-.24.54-.44s.08-.07.09-.11c.03-.06.01-.12-.04-.19Z"/><path class="cls-5" d="M484.02,749.1l-.18.13-.08-.11c-.08-.11-.12-.21-.1-.28,0-.05.04-.09.1-.13l.58-.4-.09-.13.18-.12.09.13.26-.18.17.24-.26.18.11.15-.18.12-.11-.15-.5.34s-.06.05-.06.06c0,.02.01.05.05.1,0,0,.01.02.02.02,0,0,.01.02.02.02Z"/><path class="cls-5" d="M484.69,750.24c.03.07.07.12.11.15.07.07.14.08.22.04.05-.02.07-.06.07-.11,0-.05,0-.13-.03-.22l-.04-.16c-.04-.16-.06-.28-.05-.35.02-.13.09-.22.23-.29.12-.06.25-.07.38-.02.13.05.24.16.33.33.07.14.1.29.08.43-.02.14-.11.25-.25.33l-.14-.28c.08-.05.12-.11.12-.2,0-.06-.02-.12-.05-.18-.04-.07-.08-.13-.14-.15s-.11-.03-.16,0c-.05.03-.07.07-.08.12,0,.04,0,.11.04.21l.06.27c.03.12.04.21.02.29-.02.12-.1.2-.22.27-.13.06-.25.07-.39.02-.13-.05-.24-.17-.33-.34-.09-.18-.12-.34-.09-.49.03-.14.12-.25.26-.33l.14.27c-.06.04-.1.08-.11.12-.03.08-.02.17.04.28Z"/><path class="cls-5" d="M485.29,751.37l.87-.09.12.3-1.19.05c-.23,0-.38,0-.44-.02-.06-.02-.12-.09-.17-.22,0-.02-.02-.04-.02-.06,0-.02-.01-.04-.02-.07l.22-.09v.04s.03.05.05.08c.01.02.03.04.05.05.02.01.05.02.09.02.04,0,.06,0,.07,0l.96-.83.12.31-.69.54Z"/><path class="cls-5" d="M486.51,752.58c-.03.1-.11.18-.24.23l-.08-.29s.06-.03.08-.06c.03-.04.03-.1.01-.18-.02-.06-.04-.1-.07-.13-.03-.02-.05-.03-.08-.02-.03,0-.05.03-.06.06,0,.03,0,.14,0,.32,0,.12,0,.22-.05.29-.04.07-.1.12-.18.14-.11.03-.21.02-.3-.04-.09-.06-.16-.18-.21-.35-.05-.17-.05-.31,0-.41.05-.1.13-.17.24-.2l.08.29s-.08.04-.1.07c-.03.05-.03.12,0,.21.02.06.04.1.06.13.03.03.06.04.09.03.03,0,.05-.03.06-.06,0-.03,0-.14,0-.32,0-.13,0-.23.04-.3.03-.06.09-.11.18-.13.1-.03.2-.01.3.04.1.06.16.16.21.3.04.14.04.26.02.36Z"/><path class="cls-5" d="M485.87,753.7l-.22.05-.03-.14c-.03-.14-.03-.24.01-.3.03-.04.07-.07.14-.08l.69-.15-.03-.16.21-.04.03.16.31-.07.06.29-.31.07.04.18-.21.04-.04-.18-.59.12s-.07.02-.08.04c0,.01,0,.05,0,.11,0,0,0,.02,0,.03,0,0,0,.02,0,.03Z"/><path class="cls-5" d="M486.15,754.81c-.07,0-.14-.02-.22-.08-.12-.08-.2-.21-.22-.39-.02-.14,0-.28.09-.4.08-.12.22-.2.43-.23.2-.03.35,0,.47.09.12.09.19.21.21.37.01.09,0,.18-.02.26-.03.08-.07.15-.14.21-.06.05-.14.09-.22.12-.05.01-.13.03-.22.04l-.1-.78c-.11.02-.19.07-.22.14-.02.04-.03.1-.02.15,0,.06.03.11.07.14.02.02.05.03.09.04l.04.3ZM486.46,754.47c.08-.02.13-.05.17-.1s.05-.1.04-.17c0-.07-.04-.12-.09-.15s-.11-.05-.18-.05l.06.46Z"/><path class="cls-5" d="M486.69,755.64c.05-.03.08-.08.08-.15,0-.09-.03-.14-.09-.17-.03-.02-.08-.02-.14-.02h-.69s0-.29,0-.29l1.14-.02v.29s-.16,0-.16,0c.06.04.1.07.13.1.05.06.07.13.07.22,0,.09-.02.16-.05.21-.03.04-.08.08-.14.1.07.04.12.09.15.14.03.06.05.13.05.2,0,.05,0,.1-.03.15-.02.05-.05.09-.1.13-.04.03-.09.06-.15.07-.04,0-.09.01-.17.01h-.72s0-.3,0-.3h.73s.08-.02.11-.03c.05-.03.08-.08.08-.15,0-.08-.04-.14-.11-.17-.04-.02-.08-.02-.13-.02h-.68s0-.29,0-.29h.68c.07-.01.12-.02.15-.03Z"/><path class="cls-5" d="M469.56,768.94c-.18.07-.37.08-.57,0-.26-.09-.43-.24-.52-.46-.09-.22-.08-.47.02-.75.11-.31.28-.52.5-.63.2-.1.41-.1.63-.03.3.1.48.28.55.52.04.14.04.26,0,.37l-.37-.13c0-.09,0-.17-.03-.23-.04-.1-.13-.17-.26-.22-.13-.05-.26-.03-.38.05-.12.08-.21.22-.28.42-.07.2-.08.36-.03.49s.13.21.26.26c.13.05.24.04.34-.02.05-.03.11-.09.17-.17l.37.13c-.1.18-.24.31-.41.39Z"/><path class="cls-5" d="M471.4,769.09c-.03.08-.08.15-.18.22-.14.11-.32.14-.53.1-.17-.04-.32-.12-.42-.26-.11-.14-.14-.33-.09-.59.05-.24.14-.4.29-.51.15-.1.31-.13.5-.09.11.02.21.07.29.13.08.06.14.14.18.25.04.09.05.19.05.3,0,.06-.02.16-.04.27l-.93-.19c-.02.14,0,.24.07.31.04.04.1.07.17.09.07.01.14,0,.19-.03.03-.02.06-.04.09-.08l.36.07ZM471.14,768.6c.01-.1,0-.17-.04-.23-.04-.06-.1-.1-.18-.11-.08-.02-.15,0-.21.04-.06.04-.1.11-.13.19l.55.11Z"/><path class="cls-5" d="M472.48,768.55c-.15-.01-.25.02-.31.11-.03.05-.06.13-.07.24l-.07.66-.36-.04.14-1.38.35.04-.02.24c.07-.09.12-.14.17-.17.07-.05.16-.07.27-.06,0,0,.01,0,.02,0,0,0,.01,0,.03,0l-.04.37s-.04,0-.06-.01c-.02,0-.03,0-.04,0Z"/><path class="cls-5" d="M473.4,769.38v.27s-.18,0-.18,0c-.17,0-.29-.03-.35-.1-.04-.04-.06-.11-.06-.19l.02-.86h-.19s0-.26,0-.26h.19s.01-.38.01-.38h.36s-.01.4-.01.4h.23s0,.27,0,.27h-.23s-.02.73-.02.73c0,.06,0,.09.02.11.01.01.06.02.13.02.01,0,.02,0,.04,0s.02,0,.04,0Z"/><path class="cls-5" d="M473.97,767.72v.34s-.36.01-.36.01v-.34s.36-.01.36-.01ZM473.99,768.22l.05,1.39h-.37s-.05-1.38-.05-1.38h.37Z"/><path class="cls-5" d="M474.91,767.64l.03.29s-.05,0-.1,0c-.05,0-.08.02-.1.04-.02.02-.02.05-.02.08v.12s.25-.02.25-.02l.03.26-.24.02.11,1.12-.36.04-.11-1.12-.2.02-.03-.26.2-.02v-.09c-.02-.15,0-.25.04-.31.04-.09.17-.14.37-.16.02,0,.04,0,.06,0,.02,0,.04,0,.08,0Z"/><path class="cls-5" d="M475.42,767.56l.05.33-.36.06-.05-.33.36-.06ZM475.5,768.05l.23,1.37-.36.06-.23-1.37.36-.06Z"/><path class="cls-5" d="M477.21,768.66c.01.08,0,.17-.06.28-.08.16-.23.27-.43.32-.17.04-.34.03-.5-.05-.16-.08-.27-.24-.34-.49-.06-.23-.05-.43.04-.58.09-.15.22-.26.41-.31.11-.03.22-.03.32-.01.1.02.19.07.27.14.07.07.13.15.17.25.02.06.05.15.08.26l-.92.24c.04.13.11.22.2.25.06.02.12.02.19,0,.07-.02.13-.05.16-.11.02-.03.03-.07.04-.11l.36-.09ZM476.75,768.34c-.03-.09-.08-.16-.14-.19-.06-.04-.13-.04-.21-.02-.08.02-.14.06-.17.13-.03.06-.04.14-.03.23l.55-.14Z"/><path class="cls-5" d="M478.16,766.72l.69,1.75-.33.13-.07-.18c-.02.1-.05.17-.1.23s-.12.11-.21.14c-.15.06-.3.05-.45-.03-.15-.08-.27-.22-.34-.41-.09-.22-.1-.41-.05-.58.05-.17.16-.28.33-.35.08-.03.15-.04.23-.03s.14.04.2.08l-.24-.62.34-.14ZM477.69,768.19c.05.12.11.21.18.26.08.05.16.06.26.02.1-.04.15-.1.18-.19.02-.09.01-.19-.03-.31-.06-.16-.15-.26-.25-.29-.07-.02-.13-.02-.2,0-.1.04-.16.11-.17.2-.02.09,0,.2.04.31Z"/><path class="cls-5" d="M469.21,760.8c-.07-.09-.17-.13-.31-.13-.18,0-.31.07-.37.2-.04.08-.06.2-.07.37h-.58c0-.26.06-.47.14-.63.16-.3.44-.46.85-.46.32,0,.58.09.77.27.19.18.29.42.29.71,0,.23-.07.43-.2.6-.09.12-.23.25-.44.39l-.24.17c-.15.11-.25.18-.31.23-.06.05-.1.1-.14.17h1.33v.53h-2.09c0-.22.05-.42.14-.6.09-.2.29-.42.61-.65.28-.2.46-.34.54-.43.12-.13.19-.28.19-.44,0-.13-.04-.24-.11-.32Z"/><path class="cls-5" d="M471.98,761.16c-.16.23-.29.46-.4.7-.09.19-.16.42-.23.69-.07.27-.1.5-.1.67h-.62c.02-.55.2-1.12.54-1.71.22-.37.4-.62.55-.77h-1.52v-.54h2.16v.47c-.09.09-.21.25-.37.47Z"/><path class="cls-5" d="M473.63,763.31c-.39,0-.66-.14-.82-.41-.16-.27-.23-.66-.23-1.16s.08-.89.23-1.17c.16-.27.43-.41.82-.41s.66.14.82.41c.16.27.23.66.23,1.17s-.08.89-.23,1.16c-.16.27-.43.41-.82.41ZM473.98,762.54c.05-.19.08-.45.08-.8s-.03-.64-.08-.82c-.06-.18-.17-.27-.35-.27s-.3.09-.35.27c-.06.18-.09.45-.09.82s.03.62.09.81c.06.19.18.28.35.28s.3-.09.35-.28Z"/><path class="cls-5" d="M475.99,763.31c-.39,0-.66-.14-.82-.41-.16-.27-.23-.66-.23-1.16s.08-.89.23-1.17c.16-.27.43-.41.82-.41s.66.14.82.41c.16.27.23.66.23,1.17s-.08.89-.23,1.16c-.16.27-.43.41-.82.41ZM476.34,762.54c.05-.19.08-.45.08-.8s-.03-.64-.08-.82c-.06-.18-.17-.27-.35-.27s-.3.09-.35.27c-.06.18-.09.45-.09.82s.03.62.09.81c.06.19.18.28.35.28s.3-.09.35-.28Z"/><path class="cls-5" d="M478.8,763.23h-.61v-2.11h-.72v-.41c.19,0,.32-.02.4-.04.12-.03.22-.08.29-.16.05-.05.09-.13.12-.22.02-.05.02-.1.02-.12h.5v3.05Z"/><path class="cls-5" d="M515.13,747.02h6.44c1.57,0,3.63,0,4.7.65,1.17.7,2.09,1.97,2.09,3.71,0,1.89-.99,3.31-2.64,3.98v.05c2.19.45,3.38,2.09,3.38,4.28,0,2.61-1.87,5.1-5.4,5.1h-8.59v-17.77ZM517.5,754.66h4.73c2.69,0,3.78-.97,3.78-2.84,0-2.46-1.74-2.81-3.78-2.81h-4.73v5.65ZM517.5,762.79h5.92c2.04,0,3.33-1.24,3.33-3.18,0-2.31-1.87-2.96-3.86-2.96h-5.4v6.15Z"/><path class="cls-5" d="M535.16,755.91c0,7.46-6.05,13.51-13.52,13.51s-13.51-6.05-13.51-13.51,6.05-13.51,13.51-13.51,13.52,6.05,13.52,13.51ZM521.65,740.33c-8.6,0-15.57,6.97-15.57,15.57s6.97,15.57,15.57,15.57,15.57-6.97,15.57-15.57-6.97-15.57-15.57-15.57Z"/><rect class="cls-5" x="506.11" y="774.75" width="31.07" height="2.04"/><path class="cls-5" d="M536.21,772.5s.07,0,.11,0c.03,0,.06,0,.09-.02.03-.01.05-.03.06-.05.02-.03.02-.06.02-.1,0-.04,0-.07-.02-.09-.01-.02-.03-.04-.05-.05-.02-.01-.05-.02-.08-.03-.03,0-.06,0-.09,0h-.22v.35h.18ZM536.29,772.02c.13,0,.22.03.29.08.06.05.09.13.09.23,0,.1-.03.17-.08.22-.06.04-.12.07-.21.08l.31.48h-.18l-.3-.47h-.18v.47h-.17v-1.08h.42ZM535.52,772.87c.04.1.09.18.16.25.07.07.15.13.24.17.09.04.19.06.3.06s.21-.02.3-.06c.09-.04.17-.1.24-.17.07-.07.12-.16.16-.25.04-.1.06-.2.06-.31s-.02-.22-.06-.31c-.04-.1-.09-.18-.16-.25-.07-.07-.15-.12-.24-.17-.09-.04-.19-.06-.3-.06s-.21.02-.3.06c-.09.04-.18.1-.24.17-.07.07-.12.15-.16.25-.04.1-.06.2-.06.31s.02.22.06.31M535.37,772.19c.05-.11.12-.21.2-.29.08-.08.18-.15.3-.19.11-.05.23-.07.36-.07s.25.02.36.07c.11.05.21.11.29.19.08.09.15.18.2.29.05.11.07.24.07.37s-.02.26-.07.37c-.05.11-.12.21-.2.3-.08.09-.18.15-.29.2-.11.05-.23.07-.36.07s-.25-.02-.36-.07c-.11-.05-.21-.11-.3-.2-.08-.08-.15-.18-.2-.3-.05-.11-.07-.23-.07-.37s.02-.25.07-.37"/><path class="cls-5" d="M509.88,733.49c-.07-.12-.17-.22-.28-.31-.11-.09-.23-.16-.37-.21-.14-.05-.28-.07-.44-.07-.28,0-.51.05-.71.16-.19.11-.35.25-.47.43-.12.18-.21.39-.26.62-.06.23-.08.47-.08.72s.03.47.08.69c.06.22.14.42.26.6.12.18.28.32.47.43.19.11.43.16.71.16.38,0,.67-.12.89-.35.21-.23.34-.54.39-.91h1.2c-.03.35-.11.67-.24.95-.13.28-.3.52-.52.72-.22.2-.47.35-.76.46-.29.1-.61.16-.95.16-.43,0-.82-.07-1.16-.22-.34-.15-.63-.36-.87-.62-.24-.26-.42-.57-.54-.92-.13-.35-.19-.74-.19-1.14s.06-.81.19-1.17c.13-.36.31-.67.54-.94.24-.27.53-.48.87-.63.34-.15.73-.23,1.16-.23.31,0,.6.04.88.13.28.09.52.22.74.39.22.17.4.38.54.63.14.25.23.54.27.87h-1.2c-.02-.14-.07-.27-.14-.39Z"/><path class="cls-5" d="M512.87,736.63c.17.16.41.24.72.24.23,0,.42-.06.58-.17.16-.11.26-.23.3-.36h.98c-.16.49-.4.84-.72,1.05-.33.21-.72.31-1.18.31-.32,0-.61-.05-.87-.15-.26-.1-.47-.25-.65-.44-.18-.19-.32-.41-.41-.68-.1-.26-.15-.55-.15-.87s.05-.59.15-.85c.1-.26.24-.49.42-.68.18-.19.4-.34.66-.45.25-.11.54-.17.85-.17.35,0,.65.07.91.2.26.13.47.31.63.54.17.23.28.48.36.77.07.29.1.59.08.9h-2.93c.02.36.11.62.28.79ZM514.14,734.49c-.13-.15-.34-.22-.61-.22-.18,0-.33.03-.44.09-.12.06-.21.14-.28.22-.07.09-.12.18-.15.28-.03.1-.05.19-.05.27h1.82c-.05-.28-.15-.5-.28-.65Z"/><path class="cls-5" d="M517.1,733.54v.76h.02c.05-.13.12-.24.21-.35.09-.11.19-.2.31-.28.12-.08.24-.14.37-.18.13-.04.27-.06.41-.06.07,0,.15.01.24.04v1.04c-.05-.01-.12-.02-.19-.03-.07,0-.14-.01-.21-.01-.2,0-.38.03-.52.1-.14.07-.26.16-.34.28-.09.12-.15.26-.18.41-.04.16-.06.33-.06.51v1.83h-1.12v-4.07h1.06Z"/><path class="cls-5" d="M521.65,733.54v.75h-.82v2.01c0,.19.03.31.09.38.06.06.19.09.38.09.06,0,.12,0,.18,0,.06,0,.11-.01.17-.02v.87c-.09.02-.2.03-.32.03-.12,0-.23,0-.34,0-.17,0-.34-.01-.49-.04-.15-.02-.29-.07-.41-.14-.12-.07-.21-.17-.28-.29-.07-.13-.1-.29-.1-.5v-2.4h-.68v-.75h.68v-1.22h1.12v1.22h.82Z"/><path class="cls-5" d="M522.3,732.91v-.92h1.12v.92h-1.12ZM523.42,733.54v4.07h-1.12v-4.07h1.12Z"/><path class="cls-5" d="M523.86,734.29v-.75h.67v-.31c0-.36.11-.66.34-.89.23-.23.57-.35,1.02-.35.1,0,.2,0,.3.01.1,0,.2.01.29.02v.83c-.13-.02-.27-.02-.41-.02-.15,0-.26.04-.33.11-.07.07-.1.19-.1.36v.24h.77v.75h-.77v3.32h-1.12v-3.32h-.67Z"/><path class="cls-5" d="M527.17,732.91v-.92h1.12v.92h-1.12ZM528.29,733.54v4.07h-1.12v-4.07h1.12Z"/><path class="cls-5" d="M530.05,736.63c.17.16.41.24.72.24.23,0,.42-.06.58-.17.16-.11.26-.23.3-.36h.98c-.16.49-.4.84-.72,1.05-.33.21-.72.31-1.18.31-.32,0-.61-.05-.87-.15-.26-.1-.48-.25-.65-.44-.18-.19-.32-.41-.41-.68-.1-.26-.15-.55-.15-.87s.05-.59.15-.85c.1-.26.24-.49.43-.68.18-.19.4-.34.66-.45.25-.11.54-.17.85-.17.35,0,.65.07.91.2.26.13.47.31.63.54.17.23.28.48.36.77.07.29.1.59.08.9h-2.94c.02.36.11.62.28.79ZM531.32,734.49c-.13-.15-.34-.22-.61-.22-.18,0-.33.03-.44.09-.12.06-.21.14-.28.22-.07.09-.12.18-.15.28-.03.1-.05.19-.05.27h1.82c-.05-.28-.15-.5-.28-.65Z"/><path class="cls-5" d="M536.11,737.09c-.13.22-.3.38-.52.48-.21.1-.45.15-.72.15-.3,0-.57-.06-.8-.18-.23-.12-.42-.28-.57-.48-.15-.2-.26-.43-.34-.7-.08-.26-.11-.54-.11-.82s.04-.54.11-.79c.08-.25.19-.48.34-.67.15-.19.34-.35.56-.47.23-.12.49-.18.79-.18.24,0,.47.05.69.15.22.1.39.25.52.45h.02v-2.05h1.12v5.62h-1.06v-.52h-.02ZM536.06,735.08c-.03-.15-.09-.29-.16-.41-.08-.12-.17-.21-.3-.29-.12-.07-.27-.11-.46-.11s-.34.04-.46.11c-.13.07-.23.17-.3.29-.08.12-.13.26-.16.41-.03.15-.05.32-.05.48,0,.16.02.31.05.47.04.16.1.3.18.42.08.12.18.22.31.3.12.08.27.11.44.11.18,0,.34-.04.46-.11.12-.07.22-.17.3-.3.07-.12.13-.26.16-.42.03-.16.05-.32.05-.49s-.02-.33-.05-.48Z"/><path class="cls-5" d="M508.84,780.8c-.06-.39-.43-.69-.87-.69-.78,0-1.08.67-1.08,1.36s.29,1.32,1.08,1.32c.53,0,.83-.37.9-.89h.84c-.09.99-.77,1.62-1.74,1.62-1.22,0-1.94-.91-1.94-2.06s.72-2.09,1.94-2.09c.87,0,1.6.51,1.71,1.42h-.84Z"/><path class="cls-5" d="M511.53,780.49c.9,0,1.49.6,1.49,1.51s-.58,1.51-1.49,1.51-1.48-.6-1.48-1.51.58-1.51,1.48-1.51ZM511.53,782.91c.54,0,.7-.46.7-.91s-.16-.92-.7-.92-.69.46-.69.92.16.91.69.91Z"/><path class="cls-5" d="M513.5,780.56h.75v.53h.01c.14-.36.53-.61.91-.61.06,0,.12.01.17.03v.73c-.07-.02-.19-.03-.28-.03-.58,0-.78.42-.78.92v1.29h-.79v-2.86Z"/><path class="cls-5" d="M515.65,780.56h.75v.37h.01c.19-.3.5-.44.85-.44.9,0,1.3.73,1.3,1.54,0,.76-.42,1.48-1.26,1.48-.34,0-.67-.15-.86-.43h-.01v1.36h-.79v-3.87ZM517.78,782.01c0-.46-.18-.93-.69-.93s-.68.46-.68.93.18.91.69.91.68-.44.68-.91Z"/><path class="cls-5" d="M520.3,780.49c.9,0,1.49.6,1.49,1.51s-.58,1.51-1.49,1.51-1.48-.6-1.48-1.51.58-1.51,1.48-1.51ZM520.3,782.91c.54,0,.7-.46.7-.91s-.16-.92-.7-.92-.69.46-.69.92.16.91.69.91Z"/><path class="cls-5" d="M522.27,780.56h.75v.53h.01c.14-.36.53-.61.91-.61.06,0,.12.01.17.03v.73c-.07-.02-.19-.03-.28-.03-.58,0-.78.42-.78.92v1.29h-.79v-2.86Z"/><path class="cls-5" d="M524.34,781.45c.05-.74.7-.96,1.35-.96.57,0,1.26.13,1.26.81v1.49c0,.26.03.52.1.64h-.8c-.03-.09-.05-.18-.06-.28-.25.26-.61.36-.96.36-.54,0-.98-.27-.98-.86,0-.65.49-.8.98-.87.48-.07.93-.06.93-.38s-.23-.39-.51-.39c-.3,0-.49.12-.52.43h-.79ZM526.16,782.03c-.13.12-.41.12-.65.17-.24.05-.47.13-.47.42s.23.37.48.37c.61,0,.64-.49.64-.66v-.29Z"/><path class="cls-5" d="M528.54,780.56h.58v.53h-.58v1.42c0,.27.07.33.33.33.08,0,.16,0,.24-.02v.61c-.13.02-.31.03-.46.03-.48,0-.9-.11-.9-.68v-1.69h-.48v-.53h.48v-.86h.79v.86Z"/><path class="cls-5" d="M530.49,780.12h-.79v-.65h.79v.65ZM529.71,780.56h.79v2.86h-.79v-2.86Z"/><path class="cls-5" d="M532.5,780.49c.9,0,1.49.6,1.49,1.51s-.58,1.51-1.49,1.51-1.48-.6-1.48-1.51.58-1.51,1.48-1.51ZM532.5,782.91c.54,0,.7-.46.7-.91s-.16-.92-.7-.92-.69.46-.69.92.16.91.69.91Z"/><path class="cls-5" d="M534.5,780.56h.75v.4h.02c.2-.32.54-.48.88-.48.84,0,1.05.47,1.05,1.18v1.76h-.79v-1.62c0-.47-.14-.7-.5-.7-.43,0-.61.24-.61.82v1.5h-.79v-2.86Z"/><g class="cls-8"><path class="cls-5" d="M384.08,769.58c0-1.24.95-2.15,2.22-2.15.65,0,1.21.22,1.59.65l-.39.38c-.32-.34-.72-.5-1.18-.5-.95,0-1.65.68-1.65,1.61s.7,1.61,1.65,1.61c.46,0,.86-.16,1.18-.5l.39.38c-.38.43-.95.66-1.6.66-1.27,0-2.22-.91-2.22-2.15Z"/><path class="cls-5" d="M391.74,771.15v.52h-3.05v-4.2h2.96v.52h-2.36v1.29h2.1v.51h-2.1v1.36h2.45Z"/><path class="cls-5" d="M395.46,771.68l-.91-1.29c-.08,0-.17.01-.26.01h-1.04v1.28h-.6v-4.2h1.64c1.09,0,1.75.55,1.75,1.46,0,.65-.34,1.12-.92,1.33l1,1.41h-.65ZM395.44,768.94c0-.6-.4-.94-1.17-.94h-1.02v1.89h1.02c.77,0,1.17-.35,1.17-.95Z"/><path class="cls-5" d="M397.73,768h-1.44v-.52h3.47v.52h-1.44v3.68h-.59v-3.68Z"/><path class="cls-5" d="M400.36,767.48h.6v4.2h-.6v-4.2Z"/><path class="cls-5" d="M402.76,768v1.46h2.1v.52h-2.1v1.7h-.6v-4.2h2.96v.52h-2.36Z"/><path class="cls-5" d="M405.91,767.48h.6v4.2h-.6v-4.2Z"/><path class="cls-5" d="M410.76,771.15v.52h-3.05v-4.2h2.96v.52h-2.36v1.29h2.1v.51h-2.1v1.36h2.45Z"/><path class="cls-5" d="M411.67,767.48h1.77c1.35,0,2.27.85,2.27,2.1s-.92,2.1-2.27,2.1h-1.77v-4.2ZM413.4,771.15c1.04,0,1.7-.64,1.7-1.58s-.67-1.58-1.7-1.58h-1.13v3.15h1.13Z"/><path class="cls-5" d="M421.51,768.94c0,.91-.66,1.46-1.75,1.46h-1.04v1.27h-.6v-4.2h1.64c1.09,0,1.75.55,1.75,1.46ZM420.91,768.94c0-.6-.4-.94-1.17-.94h-1.02v1.88h1.02c.77,0,1.17-.34,1.17-.94Z"/><path class="cls-5" d="M422.33,767.48h.6v3.68h2.27v.52h-2.87v-4.2Z"/><path class="cls-5" d="M425.73,769.86v-2.39h.6v2.36c0,.93.43,1.35,1.18,1.35s1.19-.42,1.19-1.35v-2.36h.58v2.39c0,1.22-.67,1.86-1.77,1.86s-1.78-.64-1.78-1.86Z"/><path class="cls-5" d="M430.07,771.2l.22-.47c.31.28.85.49,1.38.49.73,0,1.04-.28,1.04-.65,0-1.03-2.54-.38-2.54-1.94,0-.65.5-1.2,1.61-1.2.49,0,1,.13,1.35.37l-.2.48c-.37-.23-.78-.34-1.15-.34-.71,0-1.02.3-1.02.67,0,1.03,2.54.38,2.54,1.92,0,.64-.52,1.19-1.63,1.19-.64,0-1.27-.22-1.61-.53Z"/></g><path class="cls-5" d="M411.98,750.61v-1.97h2.07c.78,0,.99.5.99.98,0,.52-.24.99-.99.99h-2.07ZM410.52,754.81h1.45v-2.81h1.53l1.42,2.81h1.63l-1.46-3c.98-.35,1.46-1.33,1.46-2.18,0-1.24-.63-2.36-2.52-2.36h-3.51v7.55ZM404.23,754.81h5.38v-1.37h-3.92v-1.81h2.18v-1.37h-2.18v-1.59h3.69v-1.37h-5.16v7.52ZM400.85,753.45h-2.07v-1.86h1.78c1.07,0,1.31.5,1.31.98-.02.41-.24.88-1.02.88M400.45,750.23h-1.68v-1.6h1.88c.79,0,.95.41.95.79,0,.49-.37.81-1.14.81M397.31,747.27v7.55h3.46c1.89,0,2.56-1.17,2.56-2.24,0-.66-.32-1.42-1.17-1.74.66-.31.92-.9.92-1.54,0-1.02-.61-2.03-2.44-2.03h-3.32ZM392.55,754.81h1.45v-2.94l2.79-4.61h-1.65l-1.86,3.08-1.86-3.08h-1.65l2.79,4.61v2.94h-.02ZM386.95,754.93c1.37,0,2.21-.76,2.7-1.86l-1.34-.5c-.35.56-.75.98-1.37.98-1.16,0-1.66-1.33-1.66-2.49s.4-2.49,1.66-2.49c.66,0,1.01.32,1.39.9l1.31-.59c-.35-.85-1.25-1.71-2.7-1.71-2.33,0-3.17,2.17-3.17,3.89.02,1.85.82,3.87,3.19,3.87"/><path class="cls-5" d="M440.95,764.41c1.53,0,2.73-.82,2.73-2.3,0-1.63-1.42-2.1-2.53-2.49-.75-.24-1.37-.46-1.37-.93s.37-.72,1.01-.72c.7,0,1.08.35,1.3.79l1.31-.43c-.27-.99-1.16-1.75-2.52-1.75-1.63,0-2.56.95-2.56,2.07,0,1.49,1.27,1.92,2.38,2.29.82.27,1.53.5,1.53,1.14s-.49.92-1.22.92-1.33-.49-1.65-1.19l-1.33.5c.43,1.3,1.51,2.09,2.93,2.09M432.43,764.28h5.09v-1.4h-3.65v-6.15h-1.45v7.55ZM429.25,761.39h-1.97l.75-1.97c.08-.2.18-.49.24-.69.06.2.17.49.24.69l.73,1.97ZM430.31,764.28h1.56l-2.88-7.55h-1.42l-2.9,7.55h1.56l.58-1.57h2.91l.59,1.57ZM422.7,764.28h1.45v-7.55h-1.45v7.55ZM419.68,758.13h2.15v-1.4h-5.77v1.4h2.15v6.15h1.45v-6.15h.02ZM415.28,764.28v-7.55h-1.45v4.35c0,.14.02.4.03.56-.09-.18-.23-.43-.32-.56l-2.93-4.35h-1.37v7.55h1.45v-4.39c0-.17-.02-.38-.03-.56.09.18.23.44.32.56l3,4.39h1.3ZM402.95,764.28h5.38v-1.37h-3.92v-1.83h2.18v-1.37h-2.18v-1.59h3.69v-1.37h-5.16v7.53ZM399.37,764.41c1.53,0,2.73-.82,2.73-2.3,0-1.63-1.42-2.1-2.53-2.49-.75-.24-1.37-.46-1.37-.93s.37-.72,1.01-.72c.7,0,1.08.35,1.3.79l1.31-.43c-.27-.99-1.16-1.75-2.52-1.75-1.63,0-2.56.95-2.56,2.07,0,1.49,1.27,1.92,2.38,2.29.82.27,1.53.5,1.53,1.14s-.49.92-1.22.92-1.33-.49-1.65-1.19l-1.33.5c.43,1.3,1.51,2.09,2.93,2.09M392.95,764.41c1.53,0,2.73-.82,2.73-2.3,0-1.63-1.42-2.1-2.53-2.49-.75-.24-1.37-.46-1.37-.93s.37-.72,1.01-.72c.7,0,1.08.35,1.3.79l1.31-.43c-.27-.99-1.16-1.75-2.52-1.75-1.63,0-2.56.95-2.56,2.07,0,1.49,1.27,1.92,2.38,2.29.82.27,1.53.5,1.53,1.14s-.49.92-1.22.92-1.33-.49-1.65-1.19l-1.33.5c.43,1.3,1.51,2.09,2.93,2.09M384.06,764.28h5.38v-1.37h-3.94v-1.83h2.18v-1.37h-2.18v-1.59h3.69v-1.37h-5.14v7.53Z"/><path class="cls-5" d="M368.49,754.28c-2.62,2.73-4.51,5.73-5.51,8.5v.02c-.06-.29-.88-4.61,3.18-10.86.03-.02.05-.05.06-.08.24-.37.49-.73.76-1.1.05-.08.11-.15.17-.23.82-1.1,1.64-2.02,2.44-2.8-1.84-1.56-4.23-2.5-6.83-2.5-5.86,0-10.6,4.74-10.6,10.6s4.75,10.6,10.6,10.6,10.6-4.74,10.6-10.6c0-1.73-.42-3.36-1.15-4.8-1.27.92-2.52,2.01-3.71,3.25ZM362.79,762.82l-.32-.32c-.06-.05-.11-.11-.17-.17-2.92-3.03-4.77-6.08-5.35-10.58.09.12.18.23.28.35.98,1.2,2.54,1.98,4.29,1.98,1.29,0,2.49-.43,3.43-1.15.4-.32.77-.68,1.06-1.09-4.09,6.31-3.28,10.68-3.22,10.97v.02Z"/><path class="cls-4" d="M367.15,750.54c-.06.08-.12.15-.17.23-.27.37-.52.73-.76,1.1-.02.03-.03.06-.06.08-4.07,6.24-3.24,10.57-3.18,10.86v-.02c1-2.77,2.89-5.77,5.51-8.5,1.2-1.23,2.45-2.32,3.71-3.25,3.19-2.33,6.45-3.63,9.09-3.64,0,0-1.69-2.45-3.68-2.95-1.43-.35-2.79-.23-4.35.58l-.03.02c-.18.09-.38.21-.58.32-.95.57-1.99,1.35-3.06,2.38-.8.78-1.63,1.7-2.44,2.8Z"/></svg>