<?xml version="1.0" encoding="UTF-8"?>
<svg id="Layer_2" data-name="Layer 2" xmlns="http://www.w3.org/2000/svg" viewBox="0 0 167.3346 112.1751">
  <defs>
    <style>
      .cls-1 {
        fill: none;
      }

      .cls-2 {
        fill: #00ff54;
      }

      .cls-3 {
        opacity: .6;
      }

      .cls-4 {
        opacity: .3;
      }

      .cls-5 {
        fill: #1f05e5;
      }
    </style>
  </defs>
  <g id="Layer_1-2" data-name="Layer 1">
    <g>
      <path class="cls-5" d="M49.493,41.6855c0,4.024-3.262,7.285-7.285,7.285s-7.286-3.261-7.286-7.285,3.262-7.285,7.286-7.285,7.285,3.261,7.285,7.285"/>
      <path class="cls-5" d="M88.6643,31.3152c0-1.022.511-1.504,1.647-1.504,1.164,0,1.647.482,1.647,1.504,0,1.051-.483,1.505-1.647,1.505-1.136,0-1.647-.454-1.647-1.505M83.6113,49.1162h5.848v-11.413h-5.28v-1.646h7.097v13.059h5.338v1.647h-13.003v-1.647Z"/>
      <path class="cls-5" d="M97.8065,43.4097c0-4.826,2.356-7.608,6.445-7.608,3.52,0,5.564,2.072,5.763,5.11h-1.789c-.284-2.215-1.618-3.379-4.003-3.379-2.952,0-4.429,1.959-4.429,5.877s1.477,5.877,4.429,5.877c2.385,0,3.804-1.193,4.06-3.407h1.76c-.17,3.038-2.3,5.139-5.791,5.139-4.089,0-6.445-2.811-6.445-7.609"/>
      <path class="cls-5" d="M114.0462,41.9047h8.432c.028-2.753-1.391-4.428-4.003-4.428-2.556,0-4.06,1.589-4.429,4.428M112.0302,43.4097c0-4.826,2.356-7.608,6.501-7.608,4.032,0,6.303,2.64,5.764,7.722h-10.306c.057,3.861,1.533,5.734,4.514,5.734,2.044,0,3.606-.908,3.946-2.725h1.789c-.341,2.64-2.612,4.486-5.82,4.486-4.032,0-6.388-2.783-6.388-7.609"/>
      <path class="cls-5" d="M72.7944,68.0028v-6.956h-3.833v-1.646h3.833v-4.429h1.817v4.429h7.325v1.646h-7.325v6.984c0,3.152,1.079,4.429,4.031,4.429h2.868v1.647h-2.924c-4.174,0-5.792-1.732-5.792-6.104"/>
      <path class="cls-5" d="M85.6556,65.2486h8.432c.028-2.754-1.392-4.428-4.003-4.428-2.556,0-4.06,1.589-4.429,4.428M83.6396,66.7536c0-4.826,2.356-7.609,6.501-7.609,4.032,0,6.303,2.641,5.763,7.723h-10.305c.057,3.861,1.533,5.734,4.514,5.734,2.044,0,3.605-.908,3.946-2.725h1.789c-.341,2.64-2.612,4.486-5.82,4.486-4.032,0-6.388-2.783-6.388-7.609"/>
      <path class="cls-5" d="M97.8065,66.7536c0-4.826,2.356-7.609,6.445-7.609,3.52,0,5.564,2.073,5.763,5.111h-1.789c-.284-2.215-1.618-3.379-4.003-3.379-2.952,0-4.429,1.959-4.429,5.877s1.477,5.877,4.429,5.877c2.385,0,3.804-1.193,4.06-3.407h1.76c-.17,3.038-2.3,5.139-5.791,5.139-4.089,0-6.445-2.811-6.445-7.609"/>
      <path class="cls-5" d="M112.5128,53.0981h1.817v6.303l-.114,1.391.653.142c1.079-1.221,2.3-1.789,4.145-1.789,3.294,0,4.912,1.703,4.912,4.997v9.965h-1.817v-9.511c0-2.498-1.164-3.691-3.662-3.691-2.641,0-4.117,1.306-4.117,3.691v9.511h-1.817v-21.009Z"/>
      <path class="cls-5" d="M84.0655,93.0502h1.845c.142,1.987,1.533,2.924,3.946,2.924,2.471,0,3.918-.937,3.918-2.64,0-1.249-.795-1.987-2.413-2.357l-3.322-.709c-2.356-.483-3.406-1.675-3.406-3.577,0-2.669,1.987-4.202,5.28-4.202,3.038,0,5.338,1.334,5.565,4.315h-1.789c-.227-1.732-1.59-2.612-3.747-2.612-2.186,0-3.435.824-3.435,2.328,0,1.107.653,1.732,1.987,2.016l3.321.738c2.669.568,3.861,1.789,3.861,3.918,0,2.867-2.186,4.514-5.876,4.514-3.322,0-5.593-1.391-5.735-4.656"/>
      <path class="cls-5" d="M109.6735,97.4505h-1.476l-.227-1.533h-.653c-1.051,1.221-2.272,1.789-4.145,1.789-3.265,0-4.912-1.732-4.912-4.997v-9.965h1.817v9.511c0,2.498,1.164,3.69,3.691,3.69,2.612,0,4.088-1.334,4.088-3.69v-9.511h1.817v14.706Z"/>
      <path class="cls-5" d="M117.0549,78.003c0-1.022.511-1.504,1.647-1.504,1.164,0,1.647.482,1.647,1.504,0,1.051-.483,1.505-1.647,1.505-1.136,0-1.647-.454-1.647-1.505M112.0019,95.804h5.848v-11.413h-5.28v-1.646h7.097v13.059h5.338v1.647h-13.003v-1.647Z"/>
      <path class="cls-5" d="M129.5755,91.3467v-6.956h-3.833v-1.646h3.833v-4.429h1.817v4.429h7.324v1.646h-7.324v6.984c0,3.152,1.079,4.429,4.031,4.429h2.868v1.647h-2.924c-4.174,0-5.792-1.732-5.792-6.104"/>
      <path class="cls-5" d="M142.4368,88.5925h8.432c.028-2.754-1.392-4.428-4.003-4.428-2.556,0-4.06,1.589-4.429,4.428M140.4208,90.0975c0-4.826,2.356-7.609,6.501-7.609,4.032,0,6.303,2.641,5.763,7.723h-10.305c.057,3.861,1.533,5.734,4.514,5.734,2.044,0,3.605-.908,3.946-2.725h1.789c-.341,2.64-2.612,4.486-5.82,4.486-4.032,0-6.388-2.783-6.388-7.609"/>
      <path class="cls-2" d="M25.099,32.3205c-2.494,0-4.838.971-6.601,2.734-1.764,1.763-2.735,4.108-2.735,6.601s.971,4.838,2.735,6.602c1.763,1.763,4.107,2.734,6.601,2.734h16.939c2.494,0,4.838-.971,6.601-2.734,1.764-1.764,2.735-4.108,2.735-6.602s-.971-4.838-2.735-6.601c-1.763-1.763-4.107-2.734-6.601-2.734h-16.939ZM42.038,52.1835h-16.939c-1.421,0-2.8-.278-4.098-.828-1.254-.53-2.38-1.289-3.346-2.255-.967-.967-1.726-2.093-2.256-3.347-.549-1.298-.828-2.677-.828-4.098s.279-2.799.828-4.098c.53-1.253,1.289-2.379,2.256-3.346.966-.966,2.092-1.725,3.346-2.256,1.298-.549,2.677-.827,4.098-.827h16.939c1.421,0,2.8.278,4.098.827,1.254.531,2.379,1.29,3.346,2.256.967.967,1.726,2.093,2.256,3.346.549,1.299.828,2.677.828,4.098s-.279,2.8-.828,4.098c-.53,1.254-1.289,2.38-2.256,3.347-.967.966-2.092,1.725-3.346,2.255-1.298.55-2.677.828-4.098.828"/>
      <g class="cls-3">
        <path class="cls-2" d="M38.7452,15.6603c-.612,0-1.228.06-1.842.182-2.445.487-4.555,1.897-5.94,3.97-1.386,2.074-1.88,4.563-1.394,7.008l3.306,16.614c.487,2.446,1.897,4.555,3.97,5.941,1.553,1.037,3.34,1.575,5.167,1.575.612,0,1.228-.06,1.841-.182,2.446-.487,4.556-1.897,5.941-3.97,1.385-2.074,1.88-4.562,1.393-7.008l-3.306-16.613c-.486-2.446-1.896-4.556-3.97-5.941-1.553-1.038-3.34-1.576-5.166-1.576M42.0202,52.1423c-.708,0-1.415-.072-2.115-.217-1.333-.275-2.585-.8-3.722-1.559-1.137-.76-2.101-1.716-2.866-2.842-.791-1.166-1.334-2.464-1.611-3.858l-3.306-16.613c-.277-1.394-.273-2.8.012-4.181.275-1.333.8-2.585,1.56-3.722.759-1.136,1.715-2.1,2.841-2.865,1.166-.792,2.464-1.334,3.858-1.612,1.393-.277,2.8-.273,4.18.012,1.334.276,2.586.8,3.722,1.56,1.137.759,2.101,1.715,2.866,2.841.792,1.166,1.334,2.464,1.611,3.858l3.306,16.613c.278,1.394.274,2.8-.012,4.181-.275,1.333-.8,2.585-1.559,3.722-.759,1.137-1.715,2.101-2.842,2.866-1.166.791-2.464,1.334-3.857,1.611-.687.137-1.377.205-2.066.205"/>
      </g>
      <g class="cls-4">
        <path class="cls-2" d="M55.9614,22.6396c-1.881,0-3.715.569-5.294,1.662l-13.928,9.642c-2.05,1.419-3.425,3.552-3.871,6.005-.446,2.454.09,4.934,1.509,6.984,1.419,2.05,3.552,3.425,6.006,3.872,2.453.446,4.933-.09,6.984-1.51l13.927-9.641c2.051-1.419,3.425-3.552,3.872-6.005.446-2.454-.09-4.934-1.51-6.984-1.419-2.051-3.552-3.426-6.005-3.872-.564-.102-1.129-.153-1.69-.153M42.0634,52.1486c-.631,0-1.264-.057-1.894-.172-1.345-.244-2.609-.738-3.759-1.467-1.19-.755-2.204-1.73-3.013-2.898-.809-1.169-1.364-2.461-1.652-3.841-.278-1.332-.294-2.69-.05-4.035.245-1.345.739-2.61,1.468-3.759.754-1.191,1.73-2.205,2.898-3.013l13.927-9.642c1.169-.808,2.461-1.364,3.841-1.652,1.333-.277,2.69-.294,4.035-.049,1.345.244,2.61.738,3.76,1.467,1.19.755,2.204,1.73,3.012,2.898.809,1.168,1.365,2.461,1.652,3.841.278,1.332.295,2.69.05,4.035-.244,1.345-.738,2.61-1.467,3.759-.755,1.191-1.73,2.204-2.898,3.013l-13.928,9.641c-1.168.809-2.46,1.365-3.84,1.653-.709.147-1.425.221-2.142.221"/>
      </g>
      <path class="cls-5" d="M55.5329,49.1162h4.23v-11.413h-4.826v-1.646h4.826v-.71c0-4.06,1.618-5.593,5.423-5.593h3.264v1.647h-3.236c-2.782,0-3.634.993-3.634,3.946v.71h6.416v1.646h-6.416v11.413h4.656v1.647h-10.703v-1.647Z"/>
      <path class="cls-5" d="M69.7282,49.1162h4.23v-11.413h-4.826v-1.646h4.826v-.71c0-4.06,1.618-5.593,5.423-5.593h3.264v1.647h-3.236c-2.782,0-3.634.993-3.634,3.946v.71h6.416v1.646h-6.416v11.413h4.656v1.647h-10.703v-1.647Z"/>
    </g>
    <rect class="cls-1" width="167.3346" height="112.1751"/>
  </g>
</svg>